<svg version="1.1" xmlns="http://www.w3.org/2000/svg" xmlns:xlink="http://www.w3.org/1999/xlink" width="270.41491" height="118.13439" viewBox="0,0,270.41491,118.13439"><defs><linearGradient x1="276.03333" y1="149.71295" x2="276.03333" y2="223.37962" gradientUnits="userSpaceOnUse" id="color-1"><stop offset="0" stop-color="#bae2ff"/><stop offset="1" stop-color="#8bcfff"/></linearGradient><linearGradient x1="167.35185" y1="124.71295" x2="167.35185" y2="231.04629" gradientUnits="userSpaceOnUse" id="color-2"><stop offset="0" stop-color="#1500ff"/><stop offset="1" stop-color="#002bd0"/></linearGradient><linearGradient x1="190.03334" y1="123.04629" x2="190.03334" y2="185.04629" gradientUnits="userSpaceOnUse" id="color-3"><stop offset="0" stop-color="#9ce5ff"/><stop offset="1" stop-color="#9ce5ff" stop-opacity="0"/></linearGradient><linearGradient x1="167.68518" y1="124.04629" x2="167.68518" y2="230.37963" gradientUnits="userSpaceOnUse" id="color-4"><stop offset="0" stop-color="#bae2ff"/><stop offset="1" stop-color="#8bcfff"/></linearGradient></defs><g transform="translate(-113.95176,-114.0332)"><g data-paper-data="{&quot;isPaintingLayer&quot;:true}" fill-rule="nonzero" stroke-linejoin="miter" stroke-miterlimit="10" stroke-dasharray="" stroke-dashoffset="0" style="mix-blend-mode: normal"><path d="M167.7,223.37962v-73.66667h216.66667v73.66667z" fill="url(#color-1)" stroke="none" stroke-width="0" stroke-linecap="butt"/><path d="M187.54445,160.85579v-7.33333h191v7.33333z" fill="#ffffff" stroke="none" stroke-width="0" stroke-linecap="butt"/><path d="M219.33704,177.87962l-51.98519,53.16667l-51.98519,-53.16667l51.98519,-53.16667z" fill="url(#color-2)" stroke="none" stroke-width="0" stroke-linecap="butt"/><path d="M120.7,171.04629l47,47l46.33334,-46l5,5.33333l-52,53l-51.33333,-52.66667z" fill-opacity="0.26909" fill="#000000" stroke="none" stroke-width="0" stroke-linecap="round"/><path d="M212.36667,185.04629l-51.33334,-54.66667l6.33334,-7.33333l51.66666,53.66667z" fill="url(#color-3)" stroke="none" stroke-width="0" stroke-linecap="round"/><path d="M219.67038,177.21296l-51.98519,53.16667l-51.98519,-53.16667l51.98519,-53.16667z" fill="none" stroke="url(#color-4)" stroke-width="2.5" stroke-linecap="butt"/><path d="M147.13667,190.86628v-3.70762h38.60323v3.70762z" fill="#000000" stroke="none" stroke-width="0" stroke-linecap="butt"/><path d="M147.0134,189.50824v-6.87974h4.10052v6.87974z" fill="#000000" stroke="none" stroke-width="0" stroke-linecap="butt"/><path d="M182.04969,189.50863v-6.87974h3.81315v6.87974z" fill="#000000" stroke="none" stroke-width="0" stroke-linecap="butt"/><text transform="translate(154.87437,178.99179) scale(0.5,0.5)" font-size="40" xml:space="preserve" fill="#000000" fill-rule="nonzero" stroke="#000000" stroke-width="3" stroke-linecap="butt" stroke-linejoin="miter" stroke-miterlimit="10" stroke-dasharray="" stroke-dashoffset="0" font-family="Pixel" font-weight="normal" text-anchor="start" style="mix-blend-mode: normal"><tspan x="0" dy="0">.   .</tspan></text><text transform="translate(198.37437,214.58525) scale(0.52437,0.52437)" font-size="40" xml:space="preserve" fill="#000000" fill-rule="nonzero" stroke="#000000" stroke-width="2" stroke-linecap="butt" stroke-linejoin="miter" stroke-miterlimit="10" stroke-dasharray="" stroke-dashoffset="0" font-family="Sans Serif" font-weight="normal" text-anchor="start" style="mix-blend-mode: normal"><tspan x="0" dy="0">ESPECULAMENTE</tspan></text><text transform="translate(221.46667,187.01054) scale(0.76002,0.76002)" font-size="40" xml:space="preserve" fill="#000000" fill-rule="nonzero" stroke="none" stroke-width="1" stroke-linecap="butt" stroke-linejoin="miter" stroke-miterlimit="10" stroke-dasharray="" stroke-dashoffset="0" font-family="Sans Serif" font-weight="normal" text-anchor="start" style="mix-blend-mode: normal"><tspan x="0" dy="0">PORTAL</tspan></text><path d="M166.54445,221.18913c23.38006,0 46.33334,-21.04262 46.33334,-47c0,-9.10127 -8.03067,-28.46266 -8.03067,-28.46266c0,0 -0.51958,8.54698 -11.43711,6.67703c-4.91406,-0.84168 -5.13303,-17.04876 -5.13303,-17.04876c0,0 -4.16908,13.0257 -10.18701,10.95163c-8.85306,-3.05121 -11.57745,-32.29608 -11.72885,-30.43835c-0.5678,6.96731 -2.81598,27.49289 -11.36219,30.43835c-6.01792,2.07407 -10.18701,-10.95163 -10.18701,-10.95163c0,0 -0.21896,16.20708 -5.13303,17.04876c-10.91753,1.86995 -11.43711,-6.67703 -11.43711,-6.67703c0,0 -7.03067,19.36139 -7.03067,28.46266c0,25.95738 21.95328,47 45.33333,47z" data-paper-data="{&quot;index&quot;:null}" fill="none" stroke-opacity="0.40228" stroke="#ffffff" stroke-width="3.5" stroke-linecap="butt"/></g></g></svg>